if (_typeface_js && _typeface_js.loadFace) _typeface_js.loadFace({"glyphs":{"S":{"x_min":67.515625,"x_max":604.796875,"ha":668,"o":"m 343 937 l 457 923 l 565 880 l 565 814 l 457 863 l 346 879 l 250 859 l 181 802 l 154 710 l 183 618 l 254 559 l 345 518 l 435 481 l 517 429 l 580 354 l 604 245 l 581 136 l 519 55 l 428 5 l 319 -11 l 231 -2 l 148 21 l 67 62 l 67 131 l 146 85 l 229 56 l 318 46 l 425 69 l 504 136 l 535 241 l 499 348 l 415 416 l 316 460 l 233 494 l 159 542 l 105 610 l 84 707 l 105 806 l 161 878 l 244 923 l 343 937 "},"a":{"x_min":44.375,"x_max":615.40625,"ha":716,"o":"m 615 599 l 615 499 l 615 400 l 615 299 l 615 199 l 615 100 l 615 0 l 554 0 l 554 68 l 463 9 l 352 -11 l 253 3 l 168 48 l 103 114 l 59 200 l 44 299 l 59 399 l 102 485 l 167 551 l 251 596 l 350 611 l 461 590 l 554 530 l 554 599 l 615 599 m 357 42 l 464 66 l 554 135 l 554 245 l 554 354 l 554 464 l 464 532 l 357 556 l 259 536 l 179 481 l 125 400 l 105 299 l 125 199 l 179 117 l 259 62 l 357 42 "},"T":{"x_min":41.484375,"x_max":768.765625,"ha":810,"o":"m 768 868 l 658 868 l 549 868 l 439 868 l 439 759 l 439 651 l 439 542 l 439 434 l 439 325 l 439 217 l 439 108 l 439 0 l 370 0 l 370 108 l 370 217 l 370 325 l 370 434 l 370 542 l 370 651 l 370 759 l 370 868 l 260 868 l 151 868 l 41 868 l 41 926 l 145 926 l 248 926 l 353 926 l 457 926 l 561 926 l 664 926 l 768 926 l 768 868 "},"N":{"x_min":121.53125,"x_max":883.5625,"ha":1005,"o":"m 883 0 l 806 0 l 744 82 l 682 164 l 621 247 l 559 329 l 497 412 l 435 495 l 374 577 l 312 660 l 250 742 l 189 825 l 189 722 l 189 619 l 189 516 l 189 412 l 189 309 l 189 206 l 189 103 l 189 0 l 121 0 l 121 103 l 121 205 l 121 308 l 121 411 l 121 514 l 121 617 l 121 720 l 121 822 l 121 926 l 198 926 l 260 843 l 322 761 l 383 678 l 445 596 l 507 513 l 569 430 l 630 348 l 692 265 l 754 183 l 816 100 l 816 203 l 816 306 l 816 409 l 816 513 l 816 616 l 816 719 l 816 822 l 816 926 l 883 926 l 883 822 l 883 720 l 883 617 l 883 514 l 883 411 l 883 308 l 883 205 l 883 103 l 883 0 "},"K":{"x_min":122.5,"x_max":739.828125,"ha":757,"o":"m 191 0 l 122 0 l 122 103 l 122 205 l 122 308 l 122 411 l 122 514 l 122 617 l 122 720 l 122 822 l 122 926 l 191 926 l 191 822 l 191 720 l 191 617 l 191 514 l 191 411 l 191 308 l 191 205 l 191 103 l 191 0 m 287 493 l 362 411 l 437 328 l 513 246 l 589 164 l 664 81 l 739 0 l 650 0 l 575 81 l 501 163 l 426 245 l 352 327 l 277 409 l 203 491 l 269 564 l 333 636 l 399 708 l 464 781 l 529 853 l 595 926 l 681 926 l 616 853 l 550 782 l 484 709 l 418 637 l 353 566 l 287 493 "},"d":{"x_min":44.375,"x_max":615.40625,"ha":716,"o":"m 615 926 l 615 822 l 615 720 l 615 617 l 615 514 l 615 411 l 615 308 l 615 205 l 615 103 l 615 0 l 554 0 l 554 68 l 461 9 l 350 -11 l 251 3 l 167 48 l 102 114 l 59 200 l 44 299 l 59 399 l 103 485 l 168 551 l 253 596 l 352 611 l 463 590 l 554 531 l 554 629 l 554 728 l 554 827 l 554 926 l 615 926 m 357 42 l 464 66 l 554 135 l 554 245 l 554 354 l 554 464 l 464 532 l 357 556 l 259 536 l 179 481 l 125 400 l 105 299 l 125 199 l 179 117 l 259 62 l 357 42 "},"Y":{"x_min":38.578125,"x_max":803.5,"ha":842,"o":"m 455 454 l 455 340 l 455 226 l 455 113 l 455 0 l 385 0 l 385 113 l 385 226 l 385 340 l 385 454 l 327 532 l 270 611 l 212 689 l 154 768 l 96 846 l 38 926 l 125 926 l 184 844 l 244 762 l 302 681 l 362 599 l 421 518 l 481 599 l 540 681 l 599 762 l 658 844 l 718 926 l 803 926 l 745 846 l 687 768 l 628 689 l 571 611 l 513 532 l 455 454 "},"E":{"x_min":122.5,"x_max":642.40625,"ha":692,"o":"m 642 868 l 529 868 l 416 868 l 304 868 l 191 868 l 191 775 l 191 683 l 191 591 l 191 499 l 290 499 l 387 499 l 486 499 l 584 499 l 584 443 l 486 443 l 387 443 l 290 443 l 191 443 l 191 347 l 191 250 l 191 154 l 191 57 l 304 57 l 416 57 l 529 57 l 642 57 l 642 0 l 538 0 l 434 0 l 330 0 l 226 0 l 122 0 l 122 103 l 122 205 l 122 308 l 122 411 l 122 514 l 122 617 l 122 720 l 122 822 l 122 926 l 226 926 l 330 926 l 434 926 l 538 926 l 642 926 l 642 868 "},"j":{"x_min":-76.203125,"x_max":199.671875,"ha":311,"o":"m 155 854 l 199 810 l 155 765 l 110 810 l 155 854 m 186 578 l 186 481 l 186 383 l 186 286 l 186 190 l 186 92 l 186 -4 l 186 -102 l 166 -205 l 111 -286 l 28 -339 l -76 -358 l -76 -303 l 25 -276 l 97 -203 l 124 -98 l 124 -1 l 124 95 l 124 191 l 124 288 l 124 384 l 124 482 l 124 578 l 186 578 "},"y":{"x_min":39.546875,"x_max":570.0625,"ha":611,"o":"m 336 0 l 294 -109 l 250 -217 l 208 -326 l 146 -326 l 189 -217 l 231 -109 l 273 0 l 234 100 l 195 199 l 156 299 l 117 400 l 78 499 l 39 599 l 104 599 l 144 495 l 184 391 l 224 287 l 264 183 l 304 79 l 345 183 l 385 287 l 425 391 l 465 495 l 506 599 l 570 599 l 531 499 l 491 400 l 453 299 l 414 199 l 375 100 l 336 0 "},"Z":{"x_min":46.296875,"x_max":774.5625,"ha":821,"o":"m 774 868 l 710 787 l 647 706 l 582 625 l 518 544 l 455 463 l 391 381 l 327 300 l 263 219 l 199 138 l 136 57 l 242 57 l 349 57 l 455 57 l 561 57 l 668 57 l 774 57 l 774 0 l 670 0 l 566 0 l 462 0 l 358 0 l 254 0 l 150 0 l 46 0 l 46 57 l 109 138 l 174 219 l 238 300 l 301 381 l 365 463 l 430 544 l 493 625 l 557 706 l 622 787 l 685 868 l 578 868 l 472 868 l 365 868 l 259 868 l 152 868 l 46 868 l 46 926 l 150 926 l 254 926 l 358 926 l 462 926 l 566 926 l 670 926 l 774 926 l 774 868 "},"u":{"x_min":120.578125,"x_max":639.515625,"ha":763,"o":"m 639 599 l 639 499 l 639 400 l 639 299 l 639 199 l 639 100 l 639 0 l 577 0 l 577 67 l 484 8 l 373 -11 l 272 7 l 191 61 l 138 143 l 120 245 l 120 363 l 120 481 l 120 599 l 181 599 l 181 483 l 181 366 l 181 249 l 208 145 l 280 72 l 382 44 l 489 67 l 577 135 l 577 250 l 577 367 l 577 483 l 577 599 l 639 599 "},"k":{"x_min":81.984375,"x_max":614.4375,"ha":632,"o":"m 305 299 l 223 218 l 142 136 l 142 0 l 81 0 l 81 103 l 81 205 l 81 308 l 81 411 l 81 514 l 81 617 l 81 720 l 81 822 l 81 926 l 142 926 l 142 823 l 142 721 l 142 619 l 142 517 l 142 414 l 142 312 l 142 210 l 207 275 l 272 342 l 272 343 l 273 343 l 358 429 l 442 514 l 527 599 l 602 599 l 517 514 l 432 428 l 347 342 l 413 256 l 480 170 l 547 85 l 614 0 l 540 0 l 481 75 l 422 149 l 364 224 l 305 299 "},"g":{"x_min":44.375,"x_max":615.40625,"ha":716,"o":"m 615 599 l 615 503 l 615 406 l 615 309 l 615 213 l 615 116 l 615 19 l 615 -77 l 595 -180 l 539 -262 l 456 -316 l 353 -335 l 226 -309 l 126 -239 l 126 -172 l 221 -254 l 348 -284 l 451 -256 l 526 -182 l 554 -77 l 554 0 l 554 79 l 461 20 l 350 0 l 251 14 l 167 55 l 102 121 l 59 206 l 44 304 l 59 404 l 103 489 l 168 553 l 253 596 l 352 611 l 463 590 l 554 531 l 554 599 l 615 599 m 357 50 l 464 74 l 554 139 l 554 249 l 554 359 l 554 469 l 464 536 l 357 560 l 259 540 l 179 486 l 125 404 l 105 304 l 125 205 l 179 124 l 259 70 l 357 50 "},"t":{"x_min":62.703125,"x_max":371.359375,"ha":416,"o":"m 170 456 l 170 352 l 170 248 l 197 143 l 270 70 l 371 43 l 371 -11 l 266 7 l 183 60 l 128 141 l 109 245 l 109 350 l 109 456 l 62 456 l 62 506 l 109 506 l 109 610 l 109 715 l 170 715 l 170 610 l 170 506 l 271 506 l 371 506 l 371 456 l 271 456 l 170 456 "},"e":{"x_min":44.375,"x_max":671.34375,"ha":716,"o":"m 357 611 l 457 596 l 544 551 l 611 483 l 655 394 l 671 289 l 558 289 l 444 289 l 331 289 l 218 289 l 105 289 l 130 190 l 186 112 l 266 60 l 364 41 l 453 55 l 530 95 l 591 157 l 591 88 l 489 14 l 359 -11 l 258 3 l 171 48 l 104 114 l 59 200 l 44 299 l 59 399 l 104 485 l 171 551 l 258 596 l 357 611 m 106 332 l 206 332 l 306 332 l 406 332 l 506 332 l 606 332 l 577 426 l 522 499 l 447 548 l 357 566 l 265 547 l 187 498 l 132 425 l 106 332 "},"J":{"x_min":3.859375,"x_max":477.46875,"ha":600,"o":"m 477 926 l 477 816 l 477 706 l 477 596 l 477 487 l 477 377 l 477 267 l 457 150 l 399 62 l 312 7 l 203 -11 l 93 8 l 3 65 l 3 147 l 88 80 l 190 54 l 299 80 l 378 154 l 408 272 l 408 381 l 408 490 l 408 599 l 408 708 l 408 817 l 408 926 l 477 926 "},"W":{"x_min":81.03125,"x_max":1307.96875,"ha":1389,"o":"m 1018 0 l 949 0 l 917 103 l 885 206 l 853 309 l 821 411 l 790 515 l 758 618 l 726 721 l 694 824 l 662 721 l 630 618 l 599 515 l 567 411 l 535 309 l 503 206 l 471 103 l 439 0 l 370 0 l 338 103 l 305 205 l 273 308 l 242 411 l 209 514 l 177 617 l 145 720 l 112 822 l 81 926 l 150 926 l 182 822 l 214 719 l 245 616 l 277 513 l 309 410 l 341 307 l 373 204 l 405 101 l 436 204 l 468 307 l 500 410 l 532 513 l 564 616 l 596 719 l 627 822 l 659 926 l 729 926 l 761 822 l 792 719 l 824 616 l 856 513 l 888 410 l 920 307 l 952 204 l 983 101 l 1015 204 l 1047 307 l 1079 410 l 1111 513 l 1143 616 l 1174 719 l 1206 822 l 1238 926 l 1307 926 l 1276 822 l 1243 720 l 1211 617 l 1179 514 l 1146 411 l 1115 308 l 1083 205 l 1050 103 l 1018 0 "},"v":{"x_min":39.546875,"x_max":570.0625,"ha":611,"o":"m 336 0 l 273 0 l 234 100 l 195 199 l 156 299 l 117 400 l 78 499 l 39 599 l 104 599 l 144 495 l 184 391 l 224 288 l 264 184 l 304 80 l 345 184 l 385 288 l 425 391 l 465 495 l 506 599 l 570 599 l 531 499 l 491 400 l 453 299 l 414 199 l 375 100 l 336 0 "},"s":{"x_min":63.65625,"x_max":542.09375,"ha":600,"o":"m 299 610 l 406 598 l 505 557 l 505 496 l 404 544 l 300 559 l 187 533 l 140 453 l 194 369 l 307 336 l 416 309 l 505 259 l 542 163 l 508 67 l 420 7 l 296 -12 l 176 2 l 63 53 l 63 114 l 175 59 l 299 40 l 426 70 l 480 162 l 418 253 l 292 288 l 190 316 l 111 366 l 80 453 l 109 540 l 188 593 l 299 610 "},"B":{"x_min":122.5,"x_max":691.609375,"ha":737,"o":"m 122 926 l 211 926 l 299 926 l 388 926 l 485 908 l 563 859 l 615 788 l 633 698 l 596 574 l 499 495 l 598 447 l 666 363 l 691 254 l 670 154 l 613 73 l 527 19 l 420 0 l 321 0 l 221 0 l 122 0 l 122 103 l 122 205 l 122 308 l 122 411 l 122 514 l 122 617 l 122 720 l 122 822 l 122 926 m 191 871 l 191 753 l 191 634 l 191 516 l 288 516 l 384 516 l 475 540 l 540 603 l 564 692 l 540 782 l 475 846 l 384 871 l 288 871 l 191 871 m 191 463 l 191 360 l 191 258 l 191 156 l 191 54 l 303 54 l 416 54 l 520 81 l 594 156 l 622 259 l 594 362 l 520 435 l 416 463 l 303 463 l 191 463 "},"H":{"x_min":122.5,"x_max":871.984375,"ha":994,"o":"m 871 0 l 800 0 l 800 109 l 800 219 l 800 330 l 800 440 l 699 440 l 598 440 l 496 440 l 396 440 l 295 440 l 193 440 l 193 330 l 193 219 l 193 109 l 193 0 l 122 0 l 122 103 l 122 205 l 122 308 l 122 411 l 122 514 l 122 617 l 122 720 l 122 822 l 122 926 l 193 926 l 193 819 l 193 714 l 193 608 l 193 503 l 295 503 l 396 503 l 496 503 l 598 503 l 699 503 l 800 503 l 800 608 l 800 714 l 800 819 l 800 926 l 871 926 l 871 822 l 871 720 l 871 617 l 871 514 l 871 411 l 871 308 l 871 205 l 871 103 l 871 0 "},"c":{"x_min":54.015625,"x_max":590.328125,"ha":637,"o":"m 363 611 l 490 584 l 590 511 l 590 438 l 494 523 l 369 555 l 271 535 l 190 481 l 135 399 l 114 299 l 135 200 l 190 118 l 271 64 l 369 44 l 494 76 l 590 160 l 590 88 l 490 14 l 363 -11 l 265 3 l 180 48 l 112 114 l 69 200 l 54 299 l 69 399 l 112 485 l 180 551 l 265 596 l 363 611 "},"q":{"x_min":44.375,"x_max":615.40625,"ha":716,"o":"m 615 599 l 615 496 l 615 394 l 615 291 l 615 188 l 615 85 l 615 -17 l 615 -120 l 615 -222 l 615 -326 l 554 -326 l 554 -227 l 554 -129 l 554 -29 l 554 68 l 463 9 l 352 -11 l 253 3 l 168 48 l 103 114 l 59 200 l 44 299 l 59 399 l 102 485 l 167 551 l 251 596 l 350 611 l 461 590 l 554 530 l 554 599 l 615 599 m 357 42 l 464 66 l 554 135 l 554 245 l 554 354 l 554 464 l 464 532 l 357 556 l 259 536 l 179 481 l 125 400 l 105 299 l 125 199 l 179 117 l 259 62 l 357 42 "},"b":{"x_min":100.3125,"x_max":671.34375,"ha":716,"o":"m 363 611 l 462 596 l 546 551 l 612 485 l 655 399 l 671 299 l 655 200 l 613 114 l 547 48 l 463 3 l 365 -11 l 253 9 l 161 68 l 161 0 l 100 0 l 100 103 l 100 205 l 100 308 l 100 411 l 100 514 l 100 617 l 100 720 l 100 822 l 100 926 l 161 926 l 161 827 l 161 728 l 161 629 l 161 531 l 252 590 l 363 611 m 357 42 l 456 62 l 536 117 l 590 199 l 609 299 l 590 400 l 536 481 l 456 536 l 357 556 l 250 532 l 161 464 l 161 354 l 161 245 l 161 135 l 250 66 l 357 42 "},"D":{"x_min":122.5,"x_max":945.296875,"ha":986,"o":"m 122 926 l 240 926 l 356 926 l 474 926 l 582 913 l 681 879 l 768 824 l 842 753 l 897 667 l 932 570 l 945 463 l 932 355 l 897 258 l 842 172 l 768 101 l 681 46 l 582 12 l 474 0 l 356 0 l 240 0 l 122 0 l 122 103 l 122 205 l 122 308 l 122 411 l 122 514 l 122 617 l 122 720 l 122 822 l 122 926 m 191 863 l 191 762 l 191 662 l 191 562 l 191 462 l 191 362 l 191 262 l 191 162 l 191 61 l 286 61 l 380 61 l 474 61 l 579 76 l 674 116 l 755 178 l 817 259 l 856 355 l 871 463 l 856 570 l 817 665 l 755 746 l 674 809 l 579 848 l 474 863 l 380 863 l 286 863 l 191 863 "},"I":{"x_min":125.390625,"x_max":194.84375,"ha":321,"o":"m 194 0 l 125 0 l 125 103 l 125 205 l 125 308 l 125 411 l 125 514 l 125 617 l 125 720 l 125 822 l 125 926 l 194 926 l 194 822 l 194 720 l 194 617 l 194 514 l 194 411 l 194 308 l 194 205 l 194 103 l 194 0 "},"G":{"x_min":41.484375,"x_max":878.734375,"ha":973,"o":"m 525 937 l 624 927 l 718 898 l 804 852 l 878 790 l 878 710 l 808 778 l 724 829 l 630 863 l 529 874 l 417 860 l 318 818 l 234 755 l 170 671 l 129 572 l 114 463 l 129 352 l 170 252 l 234 168 l 318 104 l 416 62 l 527 48 l 637 64 l 736 109 l 819 177 l 819 299 l 819 422 l 720 422 l 620 422 l 520 422 l 520 477 l 640 477 l 759 477 l 878 477 l 878 364 l 878 252 l 878 139 l 804 77 l 718 28 l 623 0 l 521 -11 l 410 0 l 309 36 l 220 91 l 146 164 l 89 253 l 54 353 l 41 463 l 54 571 l 88 671 l 144 759 l 218 832 l 308 889 l 411 925 l 525 937 "},"z":{"x_min":48.234375,"x_max":551.734375,"ha":600,"o":"m 551 544 l 480 463 l 409 381 l 338 299 l 268 218 l 196 136 l 126 54 l 232 54 l 338 54 l 445 54 l 551 54 l 551 0 l 451 0 l 350 0 l 249 0 l 148 0 l 48 0 l 48 54 l 119 136 l 190 218 l 261 299 l 332 381 l 403 463 l 474 544 l 367 544 l 261 544 l 154 544 l 48 544 l 48 599 l 148 599 l 249 599 l 350 599 l 451 599 l 551 599 l 551 544 "},"U":{"x_min":97.421875,"x_max":838.21875,"ha":937,"o":"m 838 926 l 838 812 l 838 698 l 838 585 l 838 471 l 838 357 l 824 257 l 788 168 l 729 94 l 654 37 l 566 0 l 467 -11 l 369 0 l 280 37 l 205 93 l 147 167 l 110 257 l 97 357 l 97 471 l 97 585 l 97 698 l 97 812 l 97 926 l 169 926 l 169 812 l 169 698 l 169 585 l 169 471 l 169 357 l 185 259 l 226 175 l 290 109 l 372 67 l 467 52 l 562 67 l 644 109 l 708 175 l 751 259 l 766 357 l 766 471 l 766 585 l 766 698 l 766 812 l 766 926 l 838 926 "},"w":{"x_min":39.546875,"x_max":917.3125,"ha":958,"o":"m 712 0 l 657 0 l 622 103 l 586 207 l 549 310 l 514 414 l 478 517 l 442 414 l 407 310 l 371 207 l 335 103 l 299 0 l 245 0 l 210 100 l 176 199 l 141 299 l 108 400 l 73 499 l 39 599 l 103 599 l 137 497 l 172 395 l 206 294 l 241 191 l 275 89 l 311 191 l 346 294 l 381 395 l 416 497 l 452 599 l 504 599 l 540 497 l 575 395 l 610 294 l 646 191 l 681 89 l 716 191 l 751 294 l 785 395 l 819 497 l 854 599 l 917 599 l 883 499 l 848 400 l 815 299 l 781 199 l 746 100 l 712 0 "},"F":{"x_min":122.5,"x_max":642.40625,"ha":658,"o":"m 642 868 l 529 868 l 416 868 l 304 868 l 191 868 l 191 775 l 191 681 l 191 589 l 191 496 l 290 496 l 387 496 l 486 496 l 584 496 l 584 439 l 486 439 l 387 439 l 290 439 l 191 439 l 191 329 l 191 219 l 191 109 l 191 0 l 122 0 l 122 103 l 122 205 l 122 308 l 122 411 l 122 514 l 122 617 l 122 720 l 122 822 l 122 926 l 226 926 l 330 926 l 434 926 l 538 926 l 642 926 l 642 868 "},"r":{"x_min":109,"x_max":587.4375,"ha":579,"o":"m 373 611 l 493 585 l 587 514 l 587 440 l 492 522 l 367 553 l 260 529 l 170 464 l 170 348 l 170 232 l 170 115 l 170 0 l 109 0 l 109 100 l 109 199 l 109 299 l 109 400 l 109 499 l 109 599 l 170 599 l 170 530 l 263 589 l 373 611 "},"x":{"x_min":39.546875,"x_max":580.671875,"ha":621,"o":"m 310 263 l 245 175 l 181 87 l 116 0 l 39 0 l 97 76 l 155 153 l 214 229 l 272 306 l 217 380 l 161 453 l 106 526 l 51 599 l 128 599 l 189 517 l 249 434 l 310 351 l 371 434 l 432 517 l 492 599 l 570 599 l 515 526 l 459 453 l 404 380 l 349 306 l 407 229 l 464 153 l 522 76 l 580 0 l 504 0 l 439 87 l 375 175 l 310 263 "},"V":{"x_min":78.125,"x_max":869.09375,"ha":947,"o":"m 510 0 l 436 0 l 401 92 l 365 185 l 328 277 l 293 370 l 257 463 l 221 555 l 186 648 l 149 740 l 113 833 l 78 926 l 152 926 l 188 833 l 223 739 l 259 647 l 295 554 l 330 461 l 366 368 l 402 275 l 437 182 l 473 89 l 509 182 l 544 275 l 580 368 l 616 461 l 652 554 l 687 647 l 723 739 l 759 833 l 794 926 l 869 926 l 833 833 l 797 740 l 761 648 l 725 555 l 689 463 l 653 370 l 618 277 l 581 185 l 545 92 l 510 0 "},"Q":{"x_min":41.484375,"x_max":1000.265625,"ha":1042,"o":"m 1000 463 l 990 365 l 961 274 l 916 192 l 855 122 l 927 60 l 1000 0 l 922 0 l 817 88 l 728 34 l 628 0 l 520 -11 l 410 0 l 309 36 l 220 91 l 146 164 l 89 253 l 54 353 l 41 463 l 54 572 l 89 672 l 146 761 l 220 834 l 309 889 l 410 925 l 520 937 l 630 925 l 732 889 l 820 834 l 895 761 l 952 672 l 987 572 l 1000 463 m 520 51 l 609 60 l 691 88 l 763 133 l 679 204 l 594 275 l 509 347 l 588 347 l 659 287 l 731 226 l 802 166 l 869 250 l 911 351 l 926 463 l 912 572 l 871 671 l 808 754 l 726 818 l 628 860 l 520 874 l 412 860 l 315 818 l 233 754 l 169 671 l 129 572 l 114 463 l 129 353 l 169 254 l 233 171 l 315 107 l 412 65 l 520 51 "},"h":{"x_min":109,"x_max":627.9375,"ha":716,"o":"m 375 611 l 476 592 l 556 537 l 609 456 l 627 354 l 627 236 l 627 118 l 627 0 l 567 0 l 567 116 l 567 233 l 567 350 l 540 454 l 467 527 l 366 555 l 259 531 l 170 463 l 170 348 l 170 231 l 170 115 l 170 0 l 109 0 l 109 103 l 109 205 l 109 308 l 109 411 l 109 514 l 109 617 l 109 720 l 109 822 l 109 926 l 170 926 l 170 827 l 170 728 l 170 629 l 170 531 l 264 590 l 375 611 "},"M":{"x_min":122.5,"x_max":1001.234375,"ha":1124,"o":"m 1001 0 l 931 0 l 931 103 l 931 206 l 931 309 l 931 412 l 931 517 l 931 620 l 931 723 l 931 826 l 873 742 l 816 659 l 757 575 l 699 492 l 641 408 l 583 326 l 539 326 l 481 408 l 422 492 l 364 575 l 306 658 l 247 742 l 190 825 l 190 722 l 190 619 l 190 516 l 190 412 l 190 309 l 190 206 l 190 103 l 190 0 l 122 0 l 122 103 l 122 205 l 122 308 l 122 411 l 122 514 l 122 617 l 122 720 l 122 822 l 122 926 l 202 926 l 262 840 l 322 754 l 381 668 l 442 582 l 502 496 l 562 410 l 622 496 l 681 582 l 740 668 l 800 754 l 860 840 l 920 926 l 1001 926 l 1001 822 l 1001 720 l 1001 617 l 1001 514 l 1001 411 l 1001 308 l 1001 205 l 1001 103 l 1001 0 "},"C":{"x_min":41.484375,"x_max":869.09375,"ha":915,"o":"m 517 937 l 621 926 l 714 897 l 798 850 l 869 790 l 869 706 l 799 775 l 717 828 l 625 863 l 523 874 l 414 860 l 317 818 l 234 754 l 170 671 l 129 572 l 114 463 l 129 353 l 170 254 l 234 171 l 317 107 l 414 65 l 523 51 l 625 62 l 717 97 l 799 150 l 869 218 l 869 136 l 798 74 l 714 27 l 621 0 l 517 -11 l 408 0 l 307 36 l 218 91 l 145 164 l 89 253 l 54 353 l 41 463 l 54 572 l 89 672 l 145 761 l 218 834 l 307 889 l 408 925 l 517 937 "},"f":{"x_min":62.703125,"x_max":371.359375,"ha":416,"o":"m 371 937 l 371 882 l 270 855 l 197 782 l 170 677 l 170 591 l 170 506 l 271 506 l 371 506 l 371 456 l 271 456 l 170 456 l 170 342 l 170 227 l 170 113 l 170 0 l 109 0 l 109 113 l 109 227 l 109 342 l 109 456 l 62 456 l 62 506 l 109 506 l 109 593 l 109 681 l 128 784 l 183 865 l 266 918 l 371 937 "},"L":{"x_min":146.609375,"x_max":666.53125,"ha":705,"o":"m 216 62 l 328 62 l 440 62 l 553 62 l 666 62 l 666 0 l 562 0 l 458 0 l 354 0 l 250 0 l 146 0 l 146 103 l 146 205 l 146 308 l 146 411 l 146 514 l 146 617 l 146 720 l 146 822 l 146 926 l 216 926 l 216 817 l 216 709 l 216 601 l 216 493 l 216 386 l 216 278 l 216 170 l 216 62 "},"i":{"x_min":110.921875,"x_max":199.671875,"ha":311,"o":"m 155 854 l 199 810 l 155 765 l 110 810 l 155 854 m 186 0 l 124 0 l 124 96 l 124 192 l 124 289 l 124 385 l 124 482 l 124 578 l 186 578 l 186 482 l 186 385 l 186 289 l 186 192 l 186 96 l 186 0 "},"A":{"x_min":78.125,"x_max":869.09375,"ha":947,"o":"m 269 316 l 228 211 l 188 105 l 147 0 l 78 0 l 113 92 l 149 185 l 186 277 l 221 370 l 257 463 l 293 555 l 328 648 l 365 740 l 401 833 l 436 926 l 510 926 l 545 833 l 581 740 l 618 648 l 653 555 l 689 463 l 725 370 l 761 277 l 797 185 l 833 92 l 869 0 l 799 0 l 759 105 l 718 211 l 678 316 l 575 316 l 473 316 l 371 316 l 269 316 m 473 858 l 436 762 l 400 664 l 362 568 l 326 470 l 289 374 l 381 374 l 472 374 l 565 374 l 656 374 l 620 470 l 583 568 l 546 664 l 510 762 l 473 858 "},"n":{"x_min":109,"x_max":627.9375,"ha":716,"o":"m 375 611 l 476 592 l 556 537 l 609 456 l 627 354 l 627 236 l 627 118 l 627 0 l 567 0 l 567 116 l 567 233 l 567 350 l 540 454 l 467 527 l 366 555 l 259 531 l 170 463 l 170 348 l 170 231 l 170 115 l 170 0 l 109 0 l 109 100 l 109 199 l 109 299 l 109 400 l 109 499 l 109 599 l 170 599 l 170 531 l 264 590 l 375 611 "},"O":{"x_min":41.484375,"x_max":1000.265625,"ha":1042,"o":"m 520 937 l 630 925 l 732 889 l 820 834 l 895 761 l 952 672 l 987 572 l 1000 463 l 987 353 l 952 253 l 895 164 l 820 91 l 732 36 l 630 0 l 520 -11 l 410 0 l 309 36 l 220 91 l 146 164 l 89 253 l 54 353 l 41 463 l 54 572 l 89 672 l 146 761 l 220 834 l 309 889 l 410 925 l 520 937 m 520 874 l 412 860 l 315 818 l 233 754 l 169 671 l 129 572 l 114 463 l 129 353 l 169 254 l 233 171 l 315 107 l 412 65 l 520 51 l 628 65 l 726 107 l 808 171 l 871 254 l 912 353 l 926 463 l 912 572 l 871 671 l 808 754 l 726 818 l 628 860 l 520 874 "}," ":{"x_min":0,"x_max":0,"ha":526},"X":{"x_min":38.578125,"x_max":814.109375,"ha":853,"o":"m 468 484 l 526 403 l 583 323 l 641 242 l 699 161 l 756 81 l 814 0 l 727 0 l 666 85 l 606 171 l 545 258 l 486 344 l 425 430 l 364 344 l 304 258 l 244 171 l 184 85 l 123 0 l 38 0 l 95 80 l 153 161 l 210 241 l 268 321 l 325 402 l 382 482 l 320 571 l 256 659 l 193 748 l 130 837 l 67 926 l 154 926 l 209 847 l 263 769 l 318 692 l 372 614 l 427 536 l 482 614 l 536 692 l 591 769 l 645 847 l 700 926 l 785 926 l 721 837 l 658 749 l 595 660 l 532 572 l 468 484 "},"P":{"x_min":122.5,"x_max":661.703125,"ha":726,"o":"m 122 926 l 216 926 l 308 926 l 402 926 l 502 905 l 585 850 l 641 769 l 661 670 l 641 570 l 585 489 l 502 434 l 402 413 l 297 413 l 191 413 l 191 310 l 191 206 l 191 103 l 191 0 l 122 0 l 122 103 l 122 205 l 122 308 l 122 411 l 122 514 l 122 617 l 122 720 l 122 822 l 122 926 m 191 868 l 191 768 l 191 669 l 191 571 l 191 471 l 294 471 l 396 471 l 494 498 l 565 570 l 592 670 l 565 769 l 494 841 l 396 868 l 294 868 l 191 868 "},"m":{"x_min":109,"x_max":1090.9375,"ha":1179,"o":"m 838 611 l 939 592 l 1019 537 l 1072 456 l 1090 354 l 1090 236 l 1090 118 l 1090 0 l 1030 0 l 1030 116 l 1030 233 l 1030 350 l 1003 454 l 930 527 l 829 555 l 710 525 l 616 443 l 630 354 l 630 236 l 630 118 l 630 0 l 570 0 l 570 116 l 570 233 l 570 350 l 543 454 l 470 527 l 368 555 l 260 530 l 170 461 l 170 345 l 170 230 l 170 114 l 170 0 l 109 0 l 109 100 l 109 199 l 109 299 l 109 400 l 109 499 l 109 599 l 170 599 l 170 529 l 264 589 l 377 611 l 505 579 l 594 492 l 660 555 l 743 597 l 838 611 "},"l":{"x_min":110.921875,"x_max":372.328125,"ha":416,"o":"m 171 926 l 171 829 l 171 732 l 171 635 l 171 539 l 171 442 l 171 345 l 171 248 l 198 143 l 271 70 l 372 43 l 372 -11 l 267 7 l 184 60 l 130 141 l 110 245 l 110 342 l 110 439 l 110 537 l 110 633 l 110 731 l 110 828 l 110 926 l 171 926 "},"p":{"x_min":100.3125,"x_max":671.34375,"ha":716,"o":"m 363 611 l 462 596 l 546 551 l 612 485 l 655 399 l 671 299 l 655 200 l 613 114 l 547 48 l 463 3 l 365 -11 l 253 9 l 161 68 l 161 -29 l 161 -129 l 161 -227 l 161 -326 l 100 -326 l 100 -222 l 100 -120 l 100 -17 l 100 85 l 100 188 l 100 291 l 100 394 l 100 496 l 100 599 l 161 599 l 161 531 l 252 590 l 363 611 m 357 42 l 456 62 l 536 117 l 590 199 l 609 299 l 590 400 l 536 481 l 456 536 l 357 556 l 250 532 l 161 464 l 161 354 l 161 245 l 161 135 l 250 66 l 357 42 "},"R":{"x_min":136.96875,"x_max":734.046875,"ha":785,"o":"m 136 926 l 230 926 l 323 926 l 416 926 l 517 905 l 599 850 l 654 769 l 675 670 l 647 556 l 573 470 l 468 427 l 521 341 l 574 256 l 627 170 l 681 85 l 734 0 l 654 0 l 603 82 l 551 165 l 500 247 l 448 330 l 397 413 l 301 413 l 206 413 l 206 310 l 206 206 l 206 103 l 206 0 l 136 0 l 136 103 l 136 205 l 136 308 l 136 411 l 136 514 l 136 617 l 136 720 l 136 822 l 136 926 m 206 868 l 206 768 l 206 669 l 206 571 l 206 471 l 308 471 l 410 471 l 509 498 l 579 570 l 606 670 l 579 769 l 509 841 l 410 868 l 308 868 l 206 868 "},"o":{"x_min":44.375,"x_max":671.34375,"ha":716,"o":"m 357 611 l 457 596 l 544 551 l 611 485 l 655 399 l 671 299 l 655 200 l 611 114 l 544 48 l 457 3 l 357 -11 l 258 3 l 171 48 l 104 114 l 59 200 l 44 299 l 59 399 l 104 485 l 171 551 l 258 596 l 357 611 m 357 556 l 259 536 l 179 481 l 125 400 l 105 299 l 125 199 l 179 117 l 259 62 l 357 42 l 456 62 l 536 117 l 590 199 l 609 299 l 590 400 l 536 481 l 456 536 l 357 556 "}}}
